#N canvas 539 220 602 599 10;
#X obj 78 144 osc~;
#X obj 76 347 *~;
#X obj 77 518 dac~;
#X obj 74 35 loadbang;
#X obj 110 212 metro 1000;
#X obj 112 188 tgl 15 0 empty empty empty 17 7 0 10 -262144 -1 -1 1
1;
#X obj 140 238 t b b;
#X msg 191 267 1;
#X obj 331 215 metro 250;
#X obj 331 244 t b b;
#X obj 253 184 osc~;
#X obj 309 342 *~;
#X obj 331 189 tgl 15 0 empty empty empty 17 7 0 10 -262144 -1 -1 1
1;
#X obj 307 377 *~ 0.5;
#X obj 74 375 *~ 0.5;
#X obj 111 301 line~;
#X obj 330 306 line~;
#X msg 380 274 0.5;
#X obj 535 253 t b b;
#X obj 535 198 tgl 15 0 empty empty empty 17 7 0 10 -262144 -1 -1 1
1;
#X obj 449 397 *~ 0.5;
#X obj 534 315 line~;
#X msg 448 134 1000;
#X obj 535 224 metro 2000;
#X msg 535 282 0 1000;
#X obj 448 94 delay 200;
#X obj 252 93 delay 100;
#X msg 78 118 200;
#X msg -21 72 \; pd dsp 1 \;;
#X msg -12 171 \; pd dsp 0 \;;
#X msg 330 124 1;
#X msg 536 142 1;
#X msg 120 120 1;
#X obj 79 65 bng 15 250 50 0 empty empty empty 17 7 0 10 -262144 -1
-1;
#X obj 448 170 osc~;
#X obj 449 350 *~;
#X obj 449 237 *~;
#X obj 464 204 osc~ 500;
#X obj 449 299 *~;
#X obj 464 258 osc~ 100;
#X msg 588 282 0.5;
#X obj 253 261 *~;
#X msg 253 148 300;
#X msg 331 273 0 50;
#X obj 269 219 osc~ 50;
#X msg 140 267 0 500;
#X obj 58 269 *~;
#X obj 80 242 osc~ 50;
#X obj 239 619 sendOSC;
#X obj 238 525 loadbang;
#X msg 180 485 send /sound1;
#X msg 281 485 send /sound2;
#X msg 241 557 connect 127.0.0.1 12345;
#X msg 390 484 send /sound3;
#X connect 0 0 46 0;
#X connect 1 0 14 0;
#X connect 3 0 28 0;
#X connect 3 0 33 0;
#X connect 4 0 6 0;
#X connect 5 0 4 0;
#X connect 6 0 45 0;
#X connect 6 1 7 0;
#X connect 6 1 50 0;
#X connect 7 0 15 0;
#X connect 8 0 9 0;
#X connect 9 0 43 0;
#X connect 9 1 17 0;
#X connect 9 1 51 0;
#X connect 10 0 41 0;
#X connect 11 0 13 0;
#X connect 12 0 8 0;
#X connect 13 0 2 1;
#X connect 13 0 2 0;
#X connect 14 0 2 0;
#X connect 14 0 2 1;
#X connect 15 0 1 1;
#X connect 16 0 11 1;
#X connect 17 0 16 0;
#X connect 18 0 24 0;
#X connect 18 1 40 0;
#X connect 18 1 53 0;
#X connect 19 0 23 0;
#X connect 20 0 2 0;
#X connect 20 0 2 1;
#X connect 21 0 35 1;
#X connect 22 0 34 0;
#X connect 23 0 18 0;
#X connect 24 0 21 0;
#X connect 25 0 22 0;
#X connect 25 0 31 0;
#X connect 26 0 42 0;
#X connect 26 0 30 0;
#X connect 27 0 0 0;
#X connect 30 0 12 0;
#X connect 31 0 19 0;
#X connect 32 0 5 0;
#X connect 33 0 27 0;
#X connect 33 0 32 0;
#X connect 33 0 26 0;
#X connect 33 0 25 0;
#X connect 34 0 36 0;
#X connect 35 0 20 0;
#X connect 36 0 38 0;
#X connect 37 0 36 1;
#X connect 38 0 35 0;
#X connect 39 0 38 1;
#X connect 40 0 21 0;
#X connect 41 0 11 0;
#X connect 42 0 10 0;
#X connect 43 0 16 0;
#X connect 44 0 41 1;
#X connect 45 0 15 0;
#X connect 46 0 1 0;
#X connect 47 0 46 1;
#X connect 49 0 52 0;
#X connect 50 0 48 0;
#X connect 51 0 48 0;
#X connect 52 0 48 0;
#X connect 53 0 48 0;
